Patient5_TMGait_0pt45_1_left_05_EMG.mot
version=1
nRows=16
nColumns=33
inDegrees=no
endheader
time	1LAddLong	2LGlutMax	3LGlutMed	4LIliopsoas	5LSemiMemb	6LBicFemLong	7LRecFem	8LTensFascLat	9LVastMed	10LVasLat	11LGasMed	12lGasLat	13LTibAnt	14LPeroneusLong	15LSol	16LTibPost	17RAddLong	18RGlutMax	19RGlutMed	20RIliopsoas	21RSemiMemb	22RBicFemLong	23RRecFem	24RTensFascLat	25RVastMed	26RVasLat	27RGasMed	28RGasLat	29RTibAnt	30RPeroneusLong	31RSol	32RTibPost
8.615	-0.028534	-0.008698	-0.010529	0.18936	-0.059052	0.026855	-0.005646	0.14908	-0.00061	-0.007019	0.001068	-0.011902	0.078888	-0.008392	0.00412	0.12482	0.019379	0.019989	-0.14847	-0.026703	-0.019073	-0.23987	-0.012512	0.071106	0.080872	-0.042725	-0.026398	-0.026398	-0.017548	0.003052	-0.010071	-0.034943
8.616	-0.030212	-0.006409	-0.010681	-0.11978	-0.045319	0.026855	-0.000153	0.14969	0.006104	-0.005188	0.007172	-0.025787	0.024414	-0.015717	0.007935	0.044403	-0.005493	0.016022	0.04776	-0.19486	-0.062561	-0.23331	-0.008698	0.013123	0.084839	0.022278	-0.071259	-0.02533	0.035095	-0.00351	0.004425	-0.019531
8.617	-0.047607	-0.003815	-0.012207	0.033722	-0.028839	0.032501	0.005951	0.15686	0.007019	-0.009613	-0.006409	-0.017853	-0.012665	-0.015869	-0.005951	0.060272	-0.027771	0.016022	0.47852	-0.083771	-0.070953	-0.14633	-0.006104	-0.046539	0.084686	0.10849	-0.075684	-0.018768	0.10315	0.013885	0.021362	-0.00061
8.618	-0.037537	-0.004883	-0.009308	0.061646	-0.016785	0.028992	0.000763	0.17029	0.002747	-0.008698	0.004883	-0.008087	-0.036469	-0.014801	-0.001221	0.14771	-0.013733	0.006409	0.52597	-0.11459	-0.072937	0.015564	0.003204	-0.062714	0.063477	0.093231	-0.048065	-0.023956	0.049438	-0.00061	0.031281	0.049744
8.619	-0.037231	-0.006561	-0.001984	-0.000305	-0.007782	0.03006	-0.00351	0.16068	0.006104	-0.007172	-0.002899	-0.008698	-0.027771	-0.017548	0.005798	0.12146	-0.000153	-0.005493	0.34775	0.11063	-0.038147	0.010529	0.00946	-0.045319	0.040588	0.074768	-0.024719	-0.039825	0.004578	-0.076752	0.016785	0.033875
8.62	-0.002289	0.002136	0.006866	-0.037384	0.001068	0.033569	0.00412	0.12222	0.003204	-0.009918	0.001221	-0.009766	-0.021362	-0.024719	0.003662	0.079803	0.011292	-0.008087	0.27039	0.18585	-0.005493	0.002136	-0.004272	-0.033112	0.037231	-0.021973	-0.046082	-0.023804	-0.024414	-0.092773	0.00824	-0.054321
8.621	-0.046082	-0.005493	0.015564	-0.065155	0.027924	0.027618	0.00061	0.10757	0.016327	-0.014343	0.003204	-0.007629	-0.044861	-0.018463	0.004883	0.14923	0.00351	-0.014954	0.097351	0.26688	0.010986	0.083923	-0.009613	-0.019073	0.039673	-0.075378	-0.038452	-0.001068	-0.053558	-0.058136	0.006104	-0.005341
8.622	-0.023193	0.002441	0.02243	-0.032349	0.023499	0.015411	0.000305	0.10269	0.008545	-0.011139	-0.003357	-0.007935	-0.060577	-0.026855	0.001373	-0.12466	-0.011292	-0.008392	0.067291	0.17517	0.026855	-0.079956	-0.006409	-0.017242	0.004272	-0.074768	-0.011597	0.043335	-0.056763	-0.028229	0.013123	-0.035706
8.623	-0.033264	0.00351	0.021057	-0.018311	0.027466	0.014496	-0.002136	0.11795	0.000305	-0.016785	-0.010376	-0.002899	-0.023956	-0.022278	-0.007477	0.14175	0.00946	-0.016632	-0.062256	0.046692	-0.003967	-0.16113	-0.00473	0.001373	0.005035	-0.057983	-0.005951	0.048828	-0.057678	-0.018311	0.029297	-0.08606
8.624	-0.045776	-0.000153	0.014801	0.029297	0.027618	-0.000305	0.000458	0.1181	-0.000916	-0.010071	-0.025482	-0.003357	-0.022125	-0.018768	-0.014648	0.17975	-0.004272	-0.010071	-0.20431	0.11978	-0.002747	-0.27344	-0.009766	0.005493	0.034943	-0.0354	-0.016327	0.061493	-0.03952	-0.012054	0.031433	-0.097809
8.625	-0.046082	-0.005798	0.026398	-0.11368	0.010834	0.005188	-0.000458	0.14618	0.003967	-0.00061	-0.022583	-0.016632	-0.072937	-0.025482	-0.025024	0.06485	-0.006714	-0.000153	-0.25223	0.112	0.005493	-0.36682	-0.006561	0.011139	0.048676	0.042572	0.010681	0.028534	0.018921	-0.002747	0.028839	-0.094757
8.626	-0.13123	-0.002899	0.016479	0.071106	0.006409	0.000458	0.002747	0.15595	0.009308	-0.007629	-0.016327	-0.003204	-0.05127	-0.015106	-0.009613	0.003662	0.02182	0.000305	-0.40115	0.04303	0.005188	-0.26321	0.001221	0.003662	0.000763	0.098724	0	-0.014648	0.02243	0.013428	0.029602	-0.029602
8.627	-0.045013	0.001373	0.00946	0.079498	-0.003052	0.006866	0.000458	0.15152	0.002289	-0.006409	0.0354	0.000458	0.004578	-0.013733	0.00473	0.021667	0.035095	0.007629	-0.30868	0.033417	0.022736	-0.24506	0.001984	-0.0383	0.00061	0.052032	-0.021057	-0.037537	0.001526	0.018158	0	-0.018921
8.628	-0.051575	0.003967	0.015869	0.017242	-0.013733	-0.003204	0.001068	0.17044	0.003662	-0.00946	0.051727	-0.007629	-0.014801	-0.018463	-0.002441	-0.061646	0.039673	0.008698	0.027008	-0.055695	0.055084	-0.31799	-0.006409	-0.093231	0.023956	0.039368	-0.039215	-0.00946	0.004272	0.00473	-0.011597	-0.060272
8.629	-0.057678	0.005646	0.016479	-0.035553	-0.029907	0.016632	0.001526	0.18341	0.000763	-0.013123	0.03006	-0.002441	-0.005951	-0.012665	-0.006561	0.12222	-0.042877	0.012207	0.44968	-0.26672	0.10239	-0.27283	-0.018158	-0.14771	0.02243	0.005188	-0.021667	0.010834	0.004425	-0.000458	0	0.066986
8.63	-0.054016	0.001984	0.016174	-0.07019	-0.056458	-0.000916	-0.002441	0.16937	0.001831	-0.006714	-0.031891	0.001984	0.023193	-0.013275	-0.007782	0.18829	0	0.014801	0.52612	-0.35706	0.071716	-0.15259	-0.016479	-0.14038	0.007477	-0.007019	-0.001678	0.015259	0.005798	0.002747	0.008087	0.70831
